# Blender v3.0.0 OBJ File: ''
# www.blender.org
mtllib tree_dark_top.mtl
o tree_fat_darkh.001
v 0.145338 0.942888 -0.251732
v 0.377500 0.397887 0.000000
v 0.188750 0.397888 -0.326924
v 0.290675 0.942887 0.000000
v 0.000000 1.150387 0.000000
v -0.145338 0.942887 0.251732
v 0.145338 0.942887 0.251732
v -0.290675 0.942887 0.000000
v -0.145338 0.942888 -0.251732
v -0.188750 0.397887 0.326925
v 0.188750 0.397887 0.326925
v -0.188750 0.397888 -0.326924
v 0.147225 0.242887 0.255001
v 0.147225 0.242888 -0.255001
v 0.294450 0.242887 0.000000
v 0.043703 0.242887 0.043703
v -0.147225 0.242887 0.255001
v -0.043703 0.242887 0.043703
v -0.043703 0.242887 -0.043703
v 0.043703 0.242887 -0.043703
v -0.147225 0.242888 -0.255001
v -0.294450 0.242887 0.000000
v -0.377500 0.397887 0.000000
vt 5.721951 35.418678
vt -7.431104 13.758730
vt 7.431098 13.758730
vt -5.721950 35.418678
vt 0.000000 28.807541
vt -5.721949 15.963890
vt 5.721951 15.963890
vt -5.721948 15.963890
vt 5.721948 15.963890
vt 5.721949 15.963890
vt -5.721951 15.963890
vt 5.721948 35.418690
vt -7.431103 13.758740
vt 7.431103 13.758740
vt -5.721948 35.418690
vt 5.721948 35.418690
vt -7.431103 13.758740
vt 7.431103 13.758740
vt -5.721948 35.418690
vt 5.796260 10.039420
vt 5.796260 -10.039420
vt 11.592520 0.000000
vt 1.720586 1.720586
vt -5.796260 10.039420
vt -1.720586 1.720586
vt -1.720586 -1.720586
vt 1.720586 -1.720586
vt -5.796260 -10.039420
vt -11.592520 0.000000
vt -5.796262 12.899880
vt 7.431103 19.627211
vt -7.431098 19.627211
vt 5.796260 12.899880
vt -7.431098 19.627211
vt 5.796260 12.899880
vt 7.431103 19.627211
vt -5.796262 12.899880
vt 7.431098 13.758730
vt -5.721950 35.418678
vt -7.431104 13.758730
vt 5.721951 35.418678
vt 7.431103 19.627199
vt -5.796260 12.899880
vt 5.796260 12.899880
vt -7.431103 19.627199
vt 7.431104 13.758730
vt -5.721951 35.418678
vt -7.431098 13.758730
vt 5.721950 35.418678
vt -5.721951 15.963890
vt 5.721949 15.963890
vt -7.431103 19.627211
vt 5.796262 12.899880
vt 7.431098 19.627211
vt -5.796260 12.899880
vt 5.721948 15.963890
vt -5.721948 15.963890
vt 7.431103 19.627199
vt -5.796260 12.899880
vt 5.796260 12.899880
vt -7.431103 19.627199
vt -5.721951 35.418678
vt 7.431104 13.758730
vt 5.721950 35.418678
vt -7.431098 13.758730
vt 5.796262 12.899880
vt -7.431103 19.627211
vt -5.796260 12.899880
vt 7.431098 19.627211
vt -5.721949 15.963890
vt 5.721951 15.963890
vt 1.720586 9.334757
vt 1.720586 9.334757
vt 1.720586 9.334757
vt 1.720586 9.334757
vn 0.8579 0.1367 -0.4953
vn 0.5508 0.7716 -0.3180
vn 0.0000 0.7716 0.6361
vn -0.5508 0.7716 -0.3180
vn 0.0000 0.1367 0.9906
vn 0.0000 0.1367 -0.9906
vn -0.0000 -1.0000 -0.0000
vn -0.7856 -0.4209 -0.4536
vn 0.7856 -0.4209 0.4536
vn -0.8579 0.1367 0.4953
vn 0.0000 -0.4209 0.9071
vn -0.8579 0.1367 -0.4953
vn 0.5508 0.7716 0.3180
vn 0.7856 -0.4209 -0.4536
vn 0.0000 0.7716 -0.6361
vn 0.0000 -0.4209 -0.9071
vn 0.8579 0.1367 0.4953
vn -0.7856 -0.4209 0.4536
vn -0.5508 0.7716 0.3180
vn 0.0000 0.1029 -0.9947
vn 0.9947 0.1029 0.0000
vn -0.0000 0.1029 0.9947
vn -0.9947 0.1029 -0.0000
usemtl leafsDark
s 1
f 1/1/1 2/2/1 3/3/1
f 2/2/1 1/1/1 4/4/1
f 5/5/2 4/6/2 1/7/2
f 6/8/3 7/9/3 5/5/3
f 8/10/4 5/5/4 9/11/4
f 7/12/5 10/13/5 11/14/5
f 10/13/5 7/12/5 6/15/5
f 9/16/6 3/17/6 12/18/6
f 3/17/6 9/16/6 1/19/6
f 13/20/7 14/21/7 15/22/7
f 14/21/7 13/20/7 16/23/7
f 16/23/7 13/20/7 17/24/7
f 16/23/7 17/24/7 18/25/7
f 18/25/7 17/24/7 19/26/7
f 20/27/7 14/21/7 16/23/7
f 14/21/7 20/27/7 21/28/7
f 21/28/7 20/27/7 19/26/7
f 21/28/7 19/26/7 17/24/7
f 21/28/7 17/24/7 22/29/7
f 21/30/8 23/31/8 12/32/8
f 23/31/8 21/30/8 22/33/8
f 11/34/9 15/35/9 2/36/9
f 15/35/9 11/34/9 13/37/9
f 10/38/10 8/39/10 23/40/10
f 8/39/10 10/38/10 6/41/10
f 11/42/11 17/43/11 13/44/11
f 17/43/11 11/42/11 10/45/11
f 23/46/12 9/47/12 12/48/12
f 9/47/12 23/46/12 8/49/12
f 5/5/13 7/50/13 4/51/13
f 2/52/14 14/53/14 3/54/14
f 14/53/14 2/52/14 15/55/14
f 9/56/15 5/5/15 1/57/15
f 12/58/16 14/59/16 21/60/16
f 14/59/16 12/58/16 3/61/16
f 7/62/17 2/63/17 4/64/17
f 2/63/17 7/62/17 11/65/17
f 17/66/18 23/67/18 22/68/18
f 23/67/18 17/66/18 10/69/18
f 8/70/19 6/71/19 5/5/19
usemtl woodBarkDark
f 19/72/20 20/73/21 16/74/22 18/75/23
