# Blender v3.0.0 OBJ File: ''
# www.blender.org
mtllib tree_simple_top.mtl
o tree_simple
v -0.102845 1.443893 0.059378
v 0.000000 1.443893 0.118755
v 0.000000 1.519437 0.000000
v 0.102845 1.443893 0.059378
v 0.102845 1.443893 -0.059377
v 0.177319 1.143229 0.102375
v 0.000000 0.915087 0.204750
v 0.177319 0.915087 0.102375
v 0.000000 1.143229 0.204750
v 0.177319 0.915087 -0.102375
v 0.177319 1.143229 -0.102375
v -0.177319 1.143229 -0.102375
v 0.000000 0.915087 -0.204750
v -0.177319 0.915087 -0.102375
v 0.000000 1.143229 -0.204750
v -0.177319 1.143229 0.102375
v -0.102845 1.443893 -0.059377
v 0.099298 0.868250 0.057330
v 0.099298 0.868250 -0.057330
v 0.000000 0.868250 0.114660
v 0.025708 0.868250 0.025708
v -0.025708 0.868250 0.025708
v -0.099298 0.868250 0.057330
v -0.025708 0.868250 -0.025707
v 0.025708 0.868250 -0.025707
v 0.000000 0.868250 -0.114660
v -0.099298 0.868250 -0.057330
v 0.000000 1.443893 -0.118755
v -0.177319 0.915087 0.102375
vt -2.337697 30.389420
vt 2.337697 30.389420
vt -0.000000 35.413368
vt -2.337697 30.389420
vt 2.337697 30.389420
vt -2.337697 30.389420
vt 2.337697 30.389420
vt 4.030512 45.009029
vt -4.030511 36.027050
vt 4.030512 36.027050
vt -4.030511 45.009029
vt -4.030512 45.009029
vt 4.030512 36.027050
vt 4.030512 45.009029
vt -4.030512 36.027050
vt 4.030512 45.009029
vt -4.030511 36.027050
vt 4.030512 36.027050
vt -4.030511 45.009029
vt 4.030512 42.010269
vt -2.337697 54.205158
vt -4.030512 42.010269
vt 2.337697 54.205158
vt -2.257087 20.945749
vt 4.030512 24.528400
vt -4.030512 24.528400
vt 2.257087 20.945749
vt 0.000000 4.514174
vt 3.909389 -2.257087
vt 3.909389 2.257087
vt 1.012109 1.012109
vt -1.012109 1.012109
vt -3.909389 2.257087
vt -1.012109 -1.012109
vt 1.012109 -1.012109
vt 0.000000 -4.514174
vt -3.909389 -2.257087
vt 2.257087 20.945749
vt -4.030511 24.528391
vt -2.257087 20.945749
vt 4.030512 24.528391
vt -2.257087 20.945749
vt 4.030511 24.528391
vt -4.030512 24.528391
vt 2.257087 20.945749
vt 4.030511 45.009029
vt -4.030512 36.027050
vt 4.030511 36.027050
vt -4.030512 45.009029
vt 2.337697 30.389420
vt -2.337697 30.389420
vt 2.337697 54.205158
vt -4.030511 42.010269
vt 4.030511 42.010269
vt -2.337697 54.205158
vt 2.337697 54.205158
vt -4.030511 42.010269
vt 4.030511 42.010269
vt -2.337697 54.205158
vt 4.030512 24.528400
vt -2.257087 20.945749
vt 2.257087 20.945749
vt -4.030512 24.528400
vt -4.030511 24.528391
vt 2.257087 20.945749
vt 4.030512 24.528391
vt -2.257087 20.945749
vt -4.030512 24.528391
vt 2.257087 20.945749
vt 4.030511 24.528391
vt -2.257087 20.945749
vt 4.030512 36.027050
vt -4.030512 45.009029
vt -4.030512 36.027050
vt 4.030512 45.009029
vt 2.337697 54.205158
vt -4.030511 42.010269
vt 4.030511 42.010269
vt -2.337697 54.205158
vt 4.030511 45.009029
vt -4.030512 36.027050
vt 4.030511 36.027050
vt -4.030512 45.009029
vt 2.337697 54.205158
vt -4.030512 42.010269
vt 4.030512 42.010269
vt -2.337697 54.205158
vt 2.337697 54.205158
vt -4.030511 42.010269
vt 4.030511 42.010269
vt -2.337697 54.205158
vt -2.337697 30.389420
vt 2.337697 30.389420
vt 2.337697 30.389420
vt -2.337697 30.389420
vn -0.2960 0.8059 0.5127
vn 0.2960 0.8059 0.5127
vn 0.5920 0.8059 0.0000
vn 0.5000 -0.0000 0.8660
vn 1.0000 0.0000 0.0000
vn -0.5000 0.0000 -0.8660
vn -0.9707 0.2404 0.0000
vn 0.5147 -0.8574 0.0000
vn 0.0000 -1.0000 -0.0000
vn -0.2573 -0.8574 -0.4457
vn 0.2573 -0.8574 -0.4457
vn 0.5000 0.0000 -0.8660
vn -0.2960 0.8059 -0.5127
vn -0.4853 0.2404 0.8406
vn 0.4853 0.2404 -0.8406
vn -0.5147 -0.8574 0.0000
vn 0.2573 -0.8574 0.4457
vn -0.2573 -0.8574 0.4457
vn -1.0000 -0.0000 0.0000
vn 0.4853 0.2404 0.8406
vn -0.5000 -0.0000 0.8660
vn 0.9707 0.2404 0.0000
vn -0.4853 0.2404 -0.8406
vn 0.2960 0.8059 -0.5127
vn -0.5920 0.8059 0.0000
usemtl leafsGreen
s 1
f 1/1/1 2/2/1 3/3/1
f 2/4/2 4/5/2 3/3/2
f 3/3/3 4/6/3 5/7/3
f 6/8/4 7/9/4 8/10/4
f 7/9/4 6/8/4 9/11/4
f 6/12/5 10/13/5 11/14/5
f 10/13/5 6/12/5 8/15/5
f 12/16/6 13/17/6 14/18/6
f 13/17/6 12/16/6 15/19/6
f 16/20/7 17/21/7 12/22/7
f 17/21/7 16/20/7 1/23/7
f 18/24/8 10/25/8 8/26/8
f 10/25/8 18/24/8 19/27/8
f 20/28/9 19/29/9 18/30/9
f 19/29/9 20/28/9 21/31/9
f 21/31/9 20/28/9 22/32/9
f 22/32/9 20/28/9 23/33/9
f 22/32/9 23/33/9 24/34/9
f 25/35/9 19/29/9 21/31/9
f 19/29/9 25/35/9 26/36/9
f 26/36/9 25/35/9 24/34/9
f 26/36/9 24/34/9 27/37/9
f 27/37/9 24/34/9 23/33/9
f 27/38/10 13/39/10 26/40/10
f 13/39/10 27/38/10 14/41/10
f 19/42/11 13/43/11 10/44/11
f 13/43/11 19/42/11 26/45/11
f 15/46/12 10/47/12 13/48/12
f 10/47/12 15/46/12 11/49/12
f 17/50/13 3/3/13 28/51/13
f 2/52/14 16/53/14 9/54/14
f 16/53/14 2/52/14 1/55/14
f 28/56/15 11/57/15 15/58/15
f 11/57/15 28/56/15 5/59/15
f 29/60/16 27/61/16 23/62/16
f 27/61/16 29/60/16 14/63/16
f 7/64/17 18/65/17 8/66/17
f 18/65/17 7/64/17 20/67/17
f 29/68/18 20/69/18 7/70/18
f 20/69/18 29/68/18 23/71/18
f 29/72/19 12/73/19 14/74/19
f 12/73/19 29/72/19 16/75/19
f 4/76/20 9/77/20 6/78/20
f 9/77/20 4/76/20 2/79/20
f 9/80/21 29/81/21 7/82/21
f 29/81/21 9/80/21 16/83/21
f 5/84/22 6/85/22 11/86/22
f 6/85/22 5/84/22 4/87/22
f 17/88/23 15/89/23 12/90/23
f 15/89/23 17/88/23 28/91/23
f 3/3/24 5/92/24 28/93/24
f 1/94/25 3/3/25 17/95/25
